<?xml version="1.0" encoding="UTF-8" standalone="no"?>
<!DOCTYPE svg PUBLIC "-//W3C//DTD SVG 1.1//EN"
 "http://www.w3.org/Graphics/SVG/1.1/DTD/svg11.dtd">
<!-- Generated by graphviz version 14.1.2 (20260124.0452)
 -->
<!-- Pages: 1 -->
<svg width="1177pt" height="156pt"
 viewBox="0.00 0.00 1177.00 156.00" xmlns="http://www.w3.org/2000/svg" xmlns:xlink="http://www.w3.org/1999/xlink">
<g id="graph0" class="graph" transform="scale(1 1) rotate(0) translate(4 152)">
<polygon fill="white" stroke="none" points="-4,4 -4,-152 1172.5,-152 1172.5,4 -4,4"/>
<!-- 4371778064 -->
<g id="node1" class="node">
<title>4371778064</title>
<polygon fill="none" stroke="black" points="0,-111.5 0,-147.5 202.5,-147.5 202.5,-111.5 0,-111.5"/>
<text xml:space="preserve" text-anchor="middle" x="11.38" y="-124.7" font-family="Times,serif" font-size="14.00">b</text>
<polyline fill="none" stroke="black" points="22.75,-112 22.75,-147.5"/>
<text xml:space="preserve" text-anchor="middle" x="66.75" y="-124.7" font-family="Times,serif" font-size="14.00">data: &#45;3.0000</text>
<polyline fill="none" stroke="black" points="110.75,-112 110.75,-147.5"/>
<text xml:space="preserve" text-anchor="middle" x="156.62" y="-124.7" font-family="Times,serif" font-size="14.00">grad: 10.0000</text>
</g>
<!-- 4374532928* -->
<g id="node7" class="node">
<title>4374532928*</title>
<ellipse fill="none" stroke="black" cx="265.5" cy="-101.5" rx="27" ry="18"/>
<text xml:space="preserve" text-anchor="middle" x="265.5" y="-96.45" font-family="Times,serif" font-size="14.00">*</text>
</g>
<!-- 4371778064&#45;&gt;4374532928* -->
<g id="edge9" class="edge">
<title>4371778064&#45;&gt;4374532928*</title>
<path fill="none" stroke="black" d="M202.7,-112.17C211.57,-110.64 220.11,-109.16 227.86,-107.82"/>
<polygon fill="black" stroke="black" points="228.22,-111.31 237.48,-106.16 227.03,-104.41 228.22,-111.31"/>
</g>
<!-- 4387043472 -->
<g id="node2" class="node">
<title>4387043472</title>
<polygon fill="none" stroke="black" points="969,-27.5 969,-63.5 1168.5,-63.5 1168.5,-27.5 969,-27.5"/>
<text xml:space="preserve" text-anchor="middle" x="981.12" y="-40.7" font-family="Times,serif" font-size="14.00">L</text>
<polyline fill="none" stroke="black" points="993.25,-28 993.25,-63.5"/>
<text xml:space="preserve" text-anchor="middle" x="1038.38" y="-40.7" font-family="Times,serif" font-size="14.00">data: 20.0000</text>
<polyline fill="none" stroke="black" points="1083.5,-28 1083.5,-63.5"/>
<text xml:space="preserve" text-anchor="middle" x="1126" y="-40.7" font-family="Times,serif" font-size="14.00">grad: 1.0000</text>
</g>
<!-- 4387043472* -->
<g id="node3" class="node">
<title>4387043472*</title>
<ellipse fill="none" stroke="black" cx="906" cy="-45.5" rx="27" ry="18"/>
<text xml:space="preserve" text-anchor="middle" x="906" y="-40.45" font-family="Times,serif" font-size="14.00">*</text>
</g>
<!-- 4387043472*&#45;&gt;4387043472 -->
<g id="edge1" class="edge">
<title>4387043472*&#45;&gt;4387043472</title>
<path fill="none" stroke="black" d="M933.19,-45.5C940.32,-45.5 948.51,-45.5 957.27,-45.5"/>
<polygon fill="black" stroke="black" points="957.1,-49 967.1,-45.5 957.1,-42 957.1,-49"/>
</g>
<!-- 4374533360 -->
<g id="node4" class="node">
<title>4374533360</title>
<polygon fill="none" stroke="black" points="651.75,-55.5 651.75,-91.5 843,-91.5 843,-55.5 651.75,-55.5"/>
<text xml:space="preserve" text-anchor="middle" x="663.12" y="-68.7" font-family="Times,serif" font-size="14.00">d</text>
<polyline fill="none" stroke="black" points="674.5,-56 674.5,-91.5"/>
<text xml:space="preserve" text-anchor="middle" x="716.25" y="-68.7" font-family="Times,serif" font-size="14.00">data: 4.0000</text>
<polyline fill="none" stroke="black" points="758,-56 758,-91.5"/>
<text xml:space="preserve" text-anchor="middle" x="800.5" y="-68.7" font-family="Times,serif" font-size="14.00">grad: 5.0000</text>
</g>
<!-- 4374533360&#45;&gt;4387043472* -->
<g id="edge6" class="edge">
<title>4374533360&#45;&gt;4387043472*</title>
<path fill="none" stroke="black" d="M843.1,-56.57C852,-54.98 860.6,-53.44 868.42,-52.04"/>
<polygon fill="black" stroke="black" points="868.9,-55.51 878.13,-50.3 867.67,-48.62 868.9,-55.51"/>
</g>
<!-- 4374533360+ -->
<g id="node5" class="node">
<title>4374533360+</title>
<ellipse fill="none" stroke="black" cx="588.75" cy="-73.5" rx="27" ry="18"/>
<text xml:space="preserve" text-anchor="middle" x="588.75" y="-68.45" font-family="Times,serif" font-size="14.00">+</text>
</g>
<!-- 4374533360+&#45;&gt;4374533360 -->
<g id="edge2" class="edge">
<title>4374533360+&#45;&gt;4374533360</title>
<path fill="none" stroke="black" d="M615.97,-73.5C623.13,-73.5 631.36,-73.5 640.12,-73.5"/>
<polygon fill="black" stroke="black" points="639.96,-77 649.96,-73.5 639.96,-70 639.96,-77"/>
</g>
<!-- 4374532928 -->
<g id="node6" class="node">
<title>4374532928</title>
<polygon fill="none" stroke="black" points="329.62,-83.5 329.62,-119.5 524.62,-119.5 524.62,-83.5 329.62,-83.5"/>
<text xml:space="preserve" text-anchor="middle" x="340.62" y="-96.7" font-family="Times,serif" font-size="14.00">e</text>
<polyline fill="none" stroke="black" points="351.62,-84 351.62,-119.5"/>
<text xml:space="preserve" text-anchor="middle" x="395.62" y="-96.7" font-family="Times,serif" font-size="14.00">data: &#45;6.0000</text>
<polyline fill="none" stroke="black" points="439.62,-84 439.62,-119.5"/>
<text xml:space="preserve" text-anchor="middle" x="482.12" y="-96.7" font-family="Times,serif" font-size="14.00">grad: 5.0000</text>
</g>
<!-- 4374532928&#45;&gt;4374533360+ -->
<g id="edge4" class="edge">
<title>4374532928&#45;&gt;4374533360+</title>
<path fill="none" stroke="black" d="M525.12,-84.49C534.14,-82.9 542.85,-81.38 550.76,-79.99"/>
<polygon fill="black" stroke="black" points="551.36,-83.44 560.6,-78.26 550.15,-76.54 551.36,-83.44"/>
</g>
<!-- 4374532928*&#45;&gt;4374532928 -->
<g id="edge3" class="edge">
<title>4374532928*&#45;&gt;4374532928</title>
<path fill="none" stroke="black" d="M292.86,-101.5C300.29,-101.5 308.86,-101.5 318,-101.5"/>
<polygon fill="black" stroke="black" points="317.88,-105 327.88,-101.5 317.88,-98 317.88,-105"/>
</g>
<!-- 4374533504 -->
<g id="node8" class="node">
<title>4374533504</title>
<polygon fill="none" stroke="black" points="652.88,-0.5 652.88,-36.5 841.88,-36.5 841.88,-0.5 652.88,-0.5"/>
<text xml:space="preserve" text-anchor="middle" x="663.12" y="-13.7" font-family="Times,serif" font-size="14.00">f</text>
<polyline fill="none" stroke="black" points="673.38,-1 673.38,-36.5"/>
<text xml:space="preserve" text-anchor="middle" x="715.12" y="-13.7" font-family="Times,serif" font-size="14.00">data: 5.0000</text>
<polyline fill="none" stroke="black" points="756.88,-1 756.88,-36.5"/>
<text xml:space="preserve" text-anchor="middle" x="799.38" y="-13.7" font-family="Times,serif" font-size="14.00">grad: 4.0000</text>
</g>
<!-- 4374533504&#45;&gt;4387043472* -->
<g id="edge8" class="edge">
<title>4374533504&#45;&gt;4387043472*</title>
<path fill="none" stroke="black" d="M842.2,-34.67C851.39,-36.26 860.28,-37.79 868.35,-39.18"/>
<polygon fill="black" stroke="black" points="867.57,-42.6 878.01,-40.85 868.75,-35.7 867.57,-42.6"/>
</g>
<!-- 4374534080 -->
<g id="node9" class="node">
<title>4374534080</title>
<polygon fill="none" stroke="black" points="328.5,-28.5 328.5,-64.5 525.75,-64.5 525.75,-28.5 328.5,-28.5"/>
<text xml:space="preserve" text-anchor="middle" x="339.5" y="-41.7" font-family="Times,serif" font-size="14.00">c</text>
<polyline fill="none" stroke="black" points="350.5,-29 350.5,-64.5"/>
<text xml:space="preserve" text-anchor="middle" x="395.62" y="-41.7" font-family="Times,serif" font-size="14.00">data: 10.0000</text>
<polyline fill="none" stroke="black" points="440.75,-29 440.75,-64.5"/>
<text xml:space="preserve" text-anchor="middle" x="483.25" y="-41.7" font-family="Times,serif" font-size="14.00">grad: 5.0000</text>
</g>
<!-- 4374534080&#45;&gt;4374533360+ -->
<g id="edge7" class="edge">
<title>4374534080&#45;&gt;4374533360+</title>
<path fill="none" stroke="black" d="M526.03,-63.06C534.86,-64.55 543.38,-65.99 551.12,-67.3"/>
<polygon fill="black" stroke="black" points="550.28,-70.71 560.72,-68.93 551.44,-63.81 550.28,-70.71"/>
</g>
<!-- 4371778016 -->
<g id="node10" class="node">
<title>4371778016</title>
<polygon fill="none" stroke="black" points="0.38,-56.5 0.38,-92.5 202.12,-92.5 202.12,-56.5 0.38,-56.5"/>
<text xml:space="preserve" text-anchor="middle" x="11.38" y="-69.7" font-family="Times,serif" font-size="14.00">a</text>
<polyline fill="none" stroke="black" points="22.38,-57 22.38,-92.5"/>
<text xml:space="preserve" text-anchor="middle" x="64.12" y="-69.7" font-family="Times,serif" font-size="14.00">data: 2.0000</text>
<polyline fill="none" stroke="black" points="105.88,-57 105.88,-92.5"/>
<text xml:space="preserve" text-anchor="middle" x="154" y="-69.7" font-family="Times,serif" font-size="14.00">grad: &#45;15.0000</text>
</g>
<!-- 4371778016&#45;&gt;4374532928* -->
<g id="edge5" class="edge">
<title>4371778016&#45;&gt;4374532928*</title>
<path fill="none" stroke="black" d="M202.23,-91.14C211.15,-92.62 219.75,-94.05 227.57,-95.35"/>
<polygon fill="black" stroke="black" points="226.83,-98.78 237.26,-96.97 227.97,-91.87 226.83,-98.78"/>
</g>
</g>
</svg>
