<?xml version="1.0" encoding="UTF-8" standalone="no"?>
<!DOCTYPE svg PUBLIC "-//W3C//DTD SVG 1.1//EN"
 "http://www.w3.org/Graphics/SVG/1.1/DTD/svg11.dtd">
<!-- Generated by graphviz version 14.1.2 (20260124.0452)
 -->
<!-- Pages: 1 -->
<svg width="1170pt" height="128pt"
 viewBox="0.00 0.00 1170.00 128.00" xmlns="http://www.w3.org/2000/svg" xmlns:xlink="http://www.w3.org/1999/xlink">
<g id="graph0" class="graph" transform="scale(1 1) rotate(0) translate(4 124)">
<polygon fill="white" stroke="none" points="-4,4 -4,-124 1165.75,-124 1165.75,4 -4,4"/>
<!-- 4312683520 -->
<g id="node1" class="node">
<title>4312683520</title>
<polygon fill="none" stroke="black" points="962.25,-27.5 962.25,-63.5 1161.75,-63.5 1161.75,-27.5 962.25,-27.5"/>
<text xml:space="preserve" text-anchor="middle" x="974.38" y="-40.7" font-family="Times,serif" font-size="14.00">L</text>
<polyline fill="none" stroke="black" points="986.5,-28 986.5,-63.5"/>
<text xml:space="preserve" text-anchor="middle" x="1031.62" y="-40.7" font-family="Times,serif" font-size="14.00">data: 20.0000</text>
<polyline fill="none" stroke="black" points="1076.75,-28 1076.75,-63.5"/>
<text xml:space="preserve" text-anchor="middle" x="1119.25" y="-40.7" font-family="Times,serif" font-size="14.00">grad: 0.0000</text>
</g>
<!-- 4312683520* -->
<g id="node2" class="node">
<title>4312683520*</title>
<ellipse fill="none" stroke="black" cx="899.25" cy="-45.5" rx="27" ry="18"/>
<text xml:space="preserve" text-anchor="middle" x="899.25" y="-40.45" font-family="Times,serif" font-size="14.00">*</text>
</g>
<!-- 4312683520*&#45;&gt;4312683520 -->
<g id="edge1" class="edge">
<title>4312683520*&#45;&gt;4312683520</title>
<path fill="none" stroke="black" d="M926.44,-45.5C933.57,-45.5 941.76,-45.5 950.52,-45.5"/>
<polygon fill="black" stroke="black" points="950.35,-49 960.35,-45.5 950.35,-42 950.35,-49"/>
</g>
<!-- 4309753376 -->
<g id="node3" class="node">
<title>4309753376</title>
<polygon fill="none" stroke="black" points="321.75,-83.5 321.75,-119.5 519,-119.5 519,-83.5 321.75,-83.5"/>
<text xml:space="preserve" text-anchor="middle" x="332.75" y="-96.7" font-family="Times,serif" font-size="14.00">c</text>
<polyline fill="none" stroke="black" points="343.75,-84 343.75,-119.5"/>
<text xml:space="preserve" text-anchor="middle" x="388.88" y="-96.7" font-family="Times,serif" font-size="14.00">data: 10.0000</text>
<polyline fill="none" stroke="black" points="434,-84 434,-119.5"/>
<text xml:space="preserve" text-anchor="middle" x="476.5" y="-96.7" font-family="Times,serif" font-size="14.00">grad: 0.0000</text>
</g>
<!-- 4309754480+ -->
<g id="node8" class="node">
<title>4309754480+</title>
<ellipse fill="none" stroke="black" cx="582" cy="-73.5" rx="27" ry="18"/>
<text xml:space="preserve" text-anchor="middle" x="582" y="-68.45" font-family="Times,serif" font-size="14.00">+</text>
</g>
<!-- 4309753376&#45;&gt;4309754480+ -->
<g id="edge7" class="edge">
<title>4309753376&#45;&gt;4309754480+</title>
<path fill="none" stroke="black" d="M519.28,-84.33C528.11,-82.78 536.63,-81.28 544.37,-79.93"/>
<polygon fill="black" stroke="black" points="544.73,-83.42 553.97,-78.24 543.52,-76.52 544.73,-83.42"/>
</g>
<!-- 4309751360 -->
<g id="node4" class="node">
<title>4309751360</title>
<polygon fill="none" stroke="black" points="2.62,-56.5 2.62,-92.5 193.12,-92.5 193.12,-56.5 2.62,-56.5"/>
<text xml:space="preserve" text-anchor="middle" x="13.62" y="-69.7" font-family="Times,serif" font-size="14.00">a</text>
<polyline fill="none" stroke="black" points="24.62,-57 24.62,-92.5"/>
<text xml:space="preserve" text-anchor="middle" x="66.38" y="-69.7" font-family="Times,serif" font-size="14.00">data: 2.0000</text>
<polyline fill="none" stroke="black" points="108.12,-57 108.12,-92.5"/>
<text xml:space="preserve" text-anchor="middle" x="150.62" y="-69.7" font-family="Times,serif" font-size="14.00">grad: 0.0000</text>
</g>
<!-- 4309753424* -->
<g id="node6" class="node">
<title>4309753424*</title>
<ellipse fill="none" stroke="black" cx="258.75" cy="-46.5" rx="27" ry="18"/>
<text xml:space="preserve" text-anchor="middle" x="258.75" y="-41.45" font-family="Times,serif" font-size="14.00">*</text>
</g>
<!-- 4309751360&#45;&gt;4309753424* -->
<g id="edge4" class="edge">
<title>4309751360&#45;&gt;4309753424*</title>
<path fill="none" stroke="black" d="M193.59,-57.81C203.25,-56.1 212.61,-54.46 221.04,-52.97"/>
<polygon fill="black" stroke="black" points="221.57,-56.43 230.81,-51.25 220.35,-49.54 221.57,-56.43"/>
</g>
<!-- 4309753424 -->
<g id="node5" class="node">
<title>4309753424</title>
<polygon fill="none" stroke="black" points="322.88,-28.5 322.88,-64.5 517.88,-64.5 517.88,-28.5 322.88,-28.5"/>
<text xml:space="preserve" text-anchor="middle" x="333.88" y="-41.7" font-family="Times,serif" font-size="14.00">e</text>
<polyline fill="none" stroke="black" points="344.88,-29 344.88,-64.5"/>
<text xml:space="preserve" text-anchor="middle" x="388.88" y="-41.7" font-family="Times,serif" font-size="14.00">data: &#45;6.0000</text>
<polyline fill="none" stroke="black" points="432.88,-29 432.88,-64.5"/>
<text xml:space="preserve" text-anchor="middle" x="475.38" y="-41.7" font-family="Times,serif" font-size="14.00">grad: 0.0000</text>
</g>
<!-- 4309753424&#45;&gt;4309754480+ -->
<g id="edge6" class="edge">
<title>4309753424&#45;&gt;4309754480+</title>
<path fill="none" stroke="black" d="M518.37,-62.91C527.39,-64.43 536.1,-65.9 544.01,-67.24"/>
<polygon fill="black" stroke="black" points="543.41,-70.69 553.85,-68.91 544.57,-63.79 543.41,-70.69"/>
</g>
<!-- 4309753424*&#45;&gt;4309753424 -->
<g id="edge2" class="edge">
<title>4309753424*&#45;&gt;4309753424</title>
<path fill="none" stroke="black" d="M286.11,-46.5C293.54,-46.5 302.11,-46.5 311.25,-46.5"/>
<polygon fill="black" stroke="black" points="311.13,-50 321.13,-46.5 311.13,-43 311.13,-50"/>
</g>
<!-- 4309754480 -->
<g id="node7" class="node">
<title>4309754480</title>
<polygon fill="none" stroke="black" points="645,-55.5 645,-91.5 836.25,-91.5 836.25,-55.5 645,-55.5"/>
<text xml:space="preserve" text-anchor="middle" x="656.38" y="-68.7" font-family="Times,serif" font-size="14.00">d</text>
<polyline fill="none" stroke="black" points="667.75,-56 667.75,-91.5"/>
<text xml:space="preserve" text-anchor="middle" x="709.5" y="-68.7" font-family="Times,serif" font-size="14.00">data: 4.0000</text>
<polyline fill="none" stroke="black" points="751.25,-56 751.25,-91.5"/>
<text xml:space="preserve" text-anchor="middle" x="793.75" y="-68.7" font-family="Times,serif" font-size="14.00">grad: 0.0000</text>
</g>
<!-- 4309754480&#45;&gt;4312683520* -->
<g id="edge8" class="edge">
<title>4309754480&#45;&gt;4312683520*</title>
<path fill="none" stroke="black" d="M836.35,-56.57C845.25,-54.98 853.85,-53.44 861.67,-52.04"/>
<polygon fill="black" stroke="black" points="862.15,-55.51 871.38,-50.3 860.92,-48.62 862.15,-55.51"/>
</g>
<!-- 4309754480+&#45;&gt;4309754480 -->
<g id="edge3" class="edge">
<title>4309754480+&#45;&gt;4309754480</title>
<path fill="none" stroke="black" d="M609.22,-73.5C616.38,-73.5 624.61,-73.5 633.37,-73.5"/>
<polygon fill="black" stroke="black" points="633.21,-77 643.21,-73.5 633.21,-70 633.21,-77"/>
</g>
<!-- 4312682320 -->
<g id="node9" class="node">
<title>4312682320</title>
<polygon fill="none" stroke="black" points="646.12,-0.5 646.12,-36.5 835.12,-36.5 835.12,-0.5 646.12,-0.5"/>
<text xml:space="preserve" text-anchor="middle" x="656.38" y="-13.7" font-family="Times,serif" font-size="14.00">f</text>
<polyline fill="none" stroke="black" points="666.62,-1 666.62,-36.5"/>
<text xml:space="preserve" text-anchor="middle" x="708.38" y="-13.7" font-family="Times,serif" font-size="14.00">data: 5.0000</text>
<polyline fill="none" stroke="black" points="750.12,-1 750.12,-36.5"/>
<text xml:space="preserve" text-anchor="middle" x="792.62" y="-13.7" font-family="Times,serif" font-size="14.00">grad: 0.0000</text>
</g>
<!-- 4312682320&#45;&gt;4312683520* -->
<g id="edge5" class="edge">
<title>4312682320&#45;&gt;4312683520*</title>
<path fill="none" stroke="black" d="M835.45,-34.67C844.64,-36.26 853.53,-37.79 861.6,-39.18"/>
<polygon fill="black" stroke="black" points="860.82,-42.6 871.26,-40.85 862,-35.7 860.82,-42.6"/>
</g>
<!-- 4309751216 -->
<g id="node10" class="node">
<title>4309751216</title>
<polygon fill="none" stroke="black" points="0,-1.5 0,-37.5 195.75,-37.5 195.75,-1.5 0,-1.5"/>
<text xml:space="preserve" text-anchor="middle" x="11.38" y="-14.7" font-family="Times,serif" font-size="14.00">b</text>
<polyline fill="none" stroke="black" points="22.75,-2 22.75,-37.5"/>
<text xml:space="preserve" text-anchor="middle" x="66.75" y="-14.7" font-family="Times,serif" font-size="14.00">data: &#45;3.0000</text>
<polyline fill="none" stroke="black" points="110.75,-2 110.75,-37.5"/>
<text xml:space="preserve" text-anchor="middle" x="153.25" y="-14.7" font-family="Times,serif" font-size="14.00">grad: 0.0000</text>
</g>
<!-- 4309751216&#45;&gt;4309753424* -->
<g id="edge9" class="edge">
<title>4309751216&#45;&gt;4309753424*</title>
<path fill="none" stroke="black" d="M195.87,-35.98C204.71,-37.49 213.24,-38.94 221,-40.25"/>
<polygon fill="black" stroke="black" points="220.18,-43.67 230.63,-41.89 221.36,-36.77 220.18,-43.67"/>
</g>
</g>
</svg>
