<?xml version="1.0" encoding="UTF-8" standalone="no"?>
<!DOCTYPE svg PUBLIC "-//W3C//DTD SVG 1.1//EN"
 "http://www.w3.org/Graphics/SVG/1.1/DTD/svg11.dtd">
<!-- Generated by graphviz version 14.1.2 (20260124.0452)
 -->
<!-- Pages: 1 -->
<svg width="749pt" height="156pt"
 viewBox="0.00 0.00 749.00 156.00" xmlns="http://www.w3.org/2000/svg" xmlns:xlink="http://www.w3.org/1999/xlink">
<g id="graph0" class="graph" transform="scale(1 1) rotate(0) translate(4 152)">
<polygon fill="white" stroke="none" points="-4,4 -4,-152 744.75,-152 744.75,4 -4,4"/>
<!-- 4377728048 -->
<g id="node1" class="node">
<title>4377728048</title>
<polygon fill="none" stroke="black" points="0,-111.5 0,-147.5 90.5,-147.5 90.5,-111.5 0,-111.5"/>
<text xml:space="preserve" text-anchor="middle" x="11.38" y="-124.7" font-family="Times,serif" font-size="14.00">b</text>
<polyline fill="none" stroke="black" points="22.75,-112 22.75,-147.5"/>
<text xml:space="preserve" text-anchor="middle" x="56.62" y="-124.7" font-family="Times,serif" font-size="14.00">data: &#45;3.0</text>
</g>
<!-- 4377730208* -->
<g id="node4" class="node">
<title>4377730208*</title>
<ellipse fill="none" stroke="black" cx="153.5" cy="-101.5" rx="27" ry="18"/>
<text xml:space="preserve" text-anchor="middle" x="153.5" y="-96.45" font-family="Times,serif" font-size="14.00">*</text>
</g>
<!-- 4377728048&#45;&gt;4377730208* -->
<g id="edge5" class="edge">
<title>4377728048&#45;&gt;4377730208*</title>
<path fill="none" stroke="black" d="M90.69,-117.79C99.45,-115.48 108.53,-113.09 116.95,-110.87"/>
<polygon fill="black" stroke="black" points="117.68,-114.3 126.46,-108.36 115.9,-107.53 117.68,-114.3"/>
</g>
<!-- 4377730160 -->
<g id="node2" class="node">
<title>4377730160</title>
<polygon fill="none" stroke="black" points="216.5,-28.5 216.5,-64.5 308.5,-64.5 308.5,-28.5 216.5,-28.5"/>
<text xml:space="preserve" text-anchor="middle" x="227.5" y="-41.7" font-family="Times,serif" font-size="14.00">c</text>
<polyline fill="none" stroke="black" points="238.5,-29 238.5,-64.5"/>
<text xml:space="preserve" text-anchor="middle" x="273.5" y="-41.7" font-family="Times,serif" font-size="14.00">data: 10.0</text>
</g>
<!-- 4377731264+ -->
<g id="node6" class="node">
<title>4377731264+</title>
<ellipse fill="none" stroke="black" cx="371.5" cy="-73.5" rx="27" ry="18"/>
<text xml:space="preserve" text-anchor="middle" x="371.5" y="-68.45" font-family="Times,serif" font-size="14.00">+</text>
</g>
<!-- 4377730160&#45;&gt;4377731264+ -->
<g id="edge7" class="edge">
<title>4377730160&#45;&gt;4377731264+</title>
<path fill="none" stroke="black" d="M308.88,-57.95C317.47,-60.12 326.35,-62.36 334.6,-64.44"/>
<polygon fill="black" stroke="black" points="333.74,-67.83 344.29,-66.89 335.45,-61.05 333.74,-67.83"/>
</g>
<!-- 4377730208 -->
<g id="node3" class="node">
<title>4377730208</title>
<polygon fill="none" stroke="black" points="217.62,-83.5 217.62,-119.5 307.38,-119.5 307.38,-83.5 217.62,-83.5"/>
<text xml:space="preserve" text-anchor="middle" x="228.62" y="-96.7" font-family="Times,serif" font-size="14.00">e</text>
<polyline fill="none" stroke="black" points="239.62,-84 239.62,-119.5"/>
<text xml:space="preserve" text-anchor="middle" x="273.5" y="-96.7" font-family="Times,serif" font-size="14.00">data: &#45;6.0</text>
</g>
<!-- 4377730208&#45;&gt;4377731264+ -->
<g id="edge6" class="edge">
<title>4377730208&#45;&gt;4377731264+</title>
<path fill="none" stroke="black" d="M307.64,-89.95C316.68,-87.58 326.1,-85.12 334.8,-82.84"/>
<polygon fill="black" stroke="black" points="335.5,-86.28 344.28,-80.36 333.72,-79.51 335.5,-86.28"/>
</g>
<!-- 4377730208*&#45;&gt;4377730208 -->
<g id="edge1" class="edge">
<title>4377730208*&#45;&gt;4377730208</title>
<path fill="none" stroke="black" d="M180.95,-101.5C188.61,-101.5 197.27,-101.5 206.01,-101.5"/>
<polygon fill="black" stroke="black" points="205.94,-105 215.94,-101.5 205.94,-98 205.94,-105"/>
</g>
<!-- 4377731264 -->
<g id="node5" class="node">
<title>4377731264</title>
<polygon fill="none" stroke="black" points="434.5,-55.5 434.5,-91.5 520.5,-91.5 520.5,-55.5 434.5,-55.5"/>
<text xml:space="preserve" text-anchor="middle" x="445.88" y="-68.7" font-family="Times,serif" font-size="14.00">d</text>
<polyline fill="none" stroke="black" points="457.25,-56 457.25,-91.5"/>
<text xml:space="preserve" text-anchor="middle" x="488.88" y="-68.7" font-family="Times,serif" font-size="14.00">data: 4.0</text>
</g>
<!-- 4381331856* -->
<g id="node10" class="node">
<title>4381331856*</title>
<ellipse fill="none" stroke="black" cx="583.5" cy="-45.5" rx="27" ry="18"/>
<text xml:space="preserve" text-anchor="middle" x="583.5" y="-40.45" font-family="Times,serif" font-size="14.00">*</text>
</g>
<!-- 4377731264&#45;&gt;4381331856* -->
<g id="edge9" class="edge">
<title>4377731264&#45;&gt;4381331856*</title>
<path fill="none" stroke="black" d="M520.8,-62.11C529.46,-59.78 538.49,-57.35 546.89,-55.09"/>
<polygon fill="black" stroke="black" points="547.65,-58.51 556.39,-52.53 545.83,-51.75 547.65,-58.51"/>
</g>
<!-- 4377731264+&#45;&gt;4377731264 -->
<g id="edge2" class="edge">
<title>4377731264+&#45;&gt;4377731264</title>
<path fill="none" stroke="black" d="M398.74,-73.5C406.11,-73.5 414.39,-73.5 422.74,-73.5"/>
<polygon fill="black" stroke="black" points="422.56,-77 432.56,-73.5 422.56,-70 422.56,-77"/>
</g>
<!-- 4377728192 -->
<g id="node7" class="node">
<title>4377728192</title>
<polygon fill="none" stroke="black" points="2.62,-56.5 2.62,-92.5 87.88,-92.5 87.88,-56.5 2.62,-56.5"/>
<text xml:space="preserve" text-anchor="middle" x="13.62" y="-69.7" font-family="Times,serif" font-size="14.00">a</text>
<polyline fill="none" stroke="black" points="24.62,-57 24.62,-92.5"/>
<text xml:space="preserve" text-anchor="middle" x="56.25" y="-69.7" font-family="Times,serif" font-size="14.00">data: 2.0</text>
</g>
<!-- 4377728192&#45;&gt;4377730208* -->
<g id="edge4" class="edge">
<title>4377728192&#45;&gt;4377730208*</title>
<path fill="none" stroke="black" d="M88.24,-85.17C97.7,-87.58 107.66,-90.11 116.83,-92.44"/>
<polygon fill="black" stroke="black" points="115.92,-95.82 126.47,-94.89 117.64,-89.03 115.92,-95.82"/>
</g>
<!-- 4381330656 -->
<g id="node8" class="node">
<title>4381330656</title>
<polygon fill="none" stroke="black" points="435.62,-0.5 435.62,-36.5 519.38,-36.5 519.38,-0.5 435.62,-0.5"/>
<text xml:space="preserve" text-anchor="middle" x="445.88" y="-13.7" font-family="Times,serif" font-size="14.00">f</text>
<polyline fill="none" stroke="black" points="456.12,-1 456.12,-36.5"/>
<text xml:space="preserve" text-anchor="middle" x="487.75" y="-13.7" font-family="Times,serif" font-size="14.00">data: 5.0</text>
</g>
<!-- 4381330656&#45;&gt;4381331856* -->
<g id="edge8" class="edge">
<title>4381330656&#45;&gt;4381331856*</title>
<path fill="none" stroke="black" d="M519.6,-29.17C528.6,-31.51 538.06,-33.96 546.83,-36.24"/>
<polygon fill="black" stroke="black" points="545.84,-39.6 556.4,-38.72 547.6,-32.82 545.84,-39.6"/>
</g>
<!-- 4381331856 -->
<g id="node9" class="node">
<title>4381331856</title>
<polygon fill="none" stroke="black" points="646.5,-27.5 646.5,-63.5 740.75,-63.5 740.75,-27.5 646.5,-27.5"/>
<text xml:space="preserve" text-anchor="middle" x="658.62" y="-40.7" font-family="Times,serif" font-size="14.00">L</text>
<polyline fill="none" stroke="black" points="670.75,-28 670.75,-63.5"/>
<text xml:space="preserve" text-anchor="middle" x="705.75" y="-40.7" font-family="Times,serif" font-size="14.00">data: 20.0</text>
</g>
<!-- 4381331856*&#45;&gt;4381331856 -->
<g id="edge3" class="edge">
<title>4381331856*&#45;&gt;4381331856</title>
<path fill="none" stroke="black" d="M610.95,-45.5C618.26,-45.5 626.48,-45.5 634.83,-45.5"/>
<polygon fill="black" stroke="black" points="634.7,-49 644.7,-45.5 634.7,-42 634.7,-49"/>
</g>
</g>
</svg>
